<?xml version="1.0" encoding="UTF-8" standalone="no"?>
<svg
   xmlns:dc="http://purl.org/dc/elements/1.1/"
   xmlns:cc="http://creativecommons.org/ns#"
   xmlns:rdf="http://www.w3.org/1999/02/22-rdf-syntax-ns#"
   xmlns:svg="http://www.w3.org/2000/svg"
   xmlns="http://www.w3.org/2000/svg"
   xmlns:sodipodi="http://sodipodi.sourceforge.net/DTD/sodipodi-0.dtd"
   xmlns:inkscape="http://www.inkscape.org/namespaces/inkscape"
   version="1.1"
   viewBox="0 0 689.54004 121.8573"
   id="svg34"
   sodipodi:docname="logo-torocruzand-r.svg"
   inkscape:version="0.92.5 (2060ec1f9f, 2020-04-08)"
   inkscape:label="Layer1"
   width="689.54004"
   height="121.8573">
  <metadata
     id="metadata40">
    <rdf:RDF>
      <cc:Work
         rdf:about="">
        <dc:format>image/svg+xml</dc:format>
        <dc:type
           rdf:resource="http://purl.org/dc/dcmitype/StillImage" />
      </cc:Work>
    </rdf:RDF>
  </metadata>
  <defs
     id="defs38" />
  <sodipodi:namedview
     pagecolor="#ffffff"
     bordercolor="#666666"
     borderopacity="1"
     objecttolerance="10"
     gridtolerance="10"
     guidetolerance="10"
     inkscape:pageopacity="0"
     inkscape:pageshadow="2"
     inkscape:window-width="1366"
     inkscape:window-height="697"
     id="namedview36"
     showgrid="false"
     inkscape:zoom="0.50212766"
     inkscape:cx="339.5496"
     inkscape:cy="47.984422"
     inkscape:window-x="-8"
     inkscape:window-y="-8"
     inkscape:window-maximized="1"
     inkscape:current-layer="g30"
     inkscape:snap-grids="true">
    <inkscape:grid
       type="xygrid"
       id="grid1425"
       originx="84.973327"
       originy="-187.01558" />
  </sodipodi:namedview>
  <g
     fill-rule="none"
     stroke-miterlimit="10"
     font-weight="none"
     font-size="none"
     text-anchor="none"
     style="font-family:none;mix-blend-mode:normal;fill:#ff4500;stroke:none;stroke-width:1;stroke-linecap:butt;stroke-linejoin:miter;stroke-miterlimit:10;stroke-dasharray:none;stroke-dashoffset:0"
     id="g32"
     transform="translate(84.973327,-161.12712)">
    <g
       data-paper-data="{&quot;isGlobalGroup&quot;:true}"
       id="g30"
       style="fill:#ff4500"
       transform="translate(0,-1.9915254)">
      <g
         id="g845"
         transform="matrix(0.50381028,0,0,0.50381028,145.46374,118.06178)"
         style="fill:#077688;fill-opacity:1">
        <path
           d="m -176.05234,243.67167 c 4.7825,0 8.4397,-3.6572 8.4397,-8.4397 v -78.77049 h 25.88174 c 4.50117,0 8.43971,-3.6572 8.43971,-8.4397 0,-4.78251 -3.93854,-8.43971 -8.43971,-8.43971 h -68.36152 c -4.78251,0 -8.43971,3.6572 -8.43971,8.43971 0,4.7825 3.6572,8.4397 8.43971,8.4397 h 25.6004 v 78.77049 c 0,4.7825 3.6572,8.4397 8.4397,8.4397 z"
           data-paper-data="{&quot;glyphName&quot;:&quot;T&quot;,&quot;glyphIndex&quot;:0,&quot;firstGlyphOfWord&quot;:true,&quot;word&quot;:1}"
           id="path2"
           style="fill:#077688;fill-rule:nonzero;stroke-width:2.70617056;fill-opacity:1"
           inkscape:connector-curvature="0" />
        <path
           d="m -70.274845,243.67167 c 28.694961,0 51.763469,-23.34981 51.763469,-52.04477 0,-28.69496 -23.068508,-52.04478 -51.763469,-52.04478 -28.413628,0 -51.763465,23.34982 -51.763465,52.04478 0,28.69496 23.34981,52.04477 51.763465,52.04477 z m 0,-87.21019 c 19.129974,0 34.884082,15.75411 34.884082,35.16539 0,19.41131 -15.754108,35.16539 -34.884082,35.16539 -19.129974,0 -34.602745,-15.75411 -34.602745,-35.16539 0,-19.41131 15.472771,-35.16539 34.602745,-35.16539 z"
           data-paper-data="{&quot;glyphName&quot;:&quot;O&quot;,&quot;glyphIndex&quot;:1,&quot;word&quot;:1}"
           id="path4"
           style="fill:#077688;fill-rule:nonzero;stroke-width:2.70617056;fill-opacity:1"
           inkscape:connector-curvature="0" />
        <path
           d="m 52.38204,199.78527 c 14.347494,-2.53192 25.600401,-14.91013 25.600401,-30.10157 0,-16.59806 -13.784827,-30.10158 -30.382908,-30.10158 H 1.1812108 c -4.782507,0 -8.4397072,3.6572 -8.4397072,8.43971 v 87.21019 c 0,4.78251 3.6572002,8.43971 8.4397072,8.43971 4.7825071,0 8.4397072,-3.6572 8.4397072,-8.43971 v -78.77048 h 37.978615 c 7.3144,0 13.222187,5.90778 13.222187,13.22218 0,7.3144 -5.907787,13.50352 -13.222187,13.50352 H 35.221319 c 0,0 0,0 -0.281334,0 -0.281333,0 -0.562639,0 -0.843973,0 -0.281333,0 -0.56264,0 -0.843973,0.28134 -0.281334,0 -0.56264,0 -0.56264,0 -0.281334,0.28133 -0.56264,0.28133 -0.843974,0.56264 -0.281333,0 -0.56264,0 -0.843973,0.28133 -0.281334,0 -0.56264,0.28134 -0.56264,0.56264 -0.281334,0 -0.281334,0 -0.281334,0 -0.281333,0 -0.281333,0.28133 -0.56264,0.28133 0,0.28134 -0.281333,0.56264 -0.562639,0.84398 -0.281334,0 -0.281334,0.28133 -0.56264,0.56264 0,0.28133 -0.281334,0.28133 -0.281334,0.56264 -0.281333,0.28133 -0.281333,0.56264 -0.56264,0.84397 0,0.28134 -0.281333,0.28134 -0.281333,0.56264 0,0.28134 -0.281334,0.56264 -0.281334,0.84398 0,0.28133 0,0.56263 0,0.84397 -0.281333,0.28133 -0.281333,0.56264 -0.281333,0.84397 0,0.28134 0,0.28134 0,0.56264 v 0.28134 c 0,0.28133 0,0.56264 0.281333,0.84397 0,0.28133 0,0.56264 0,0.84397 0,0.28134 0.281334,0.56264 0.281334,0.84398 0,0.28133 0,0.56264 0.281333,0.84397 0,0 0.281334,0.28133 0.281334,0.56264 0.281333,0.28133 0.281333,0.56264 0.56264,0.84397 0,0 0,0 0,0.28134 l 34.321414,43.32376 c 1.687947,2.25058 4.21984,3.37586 6.75176,3.37586 1.687947,0 3.657201,-0.56264 5.063814,-1.68794 3.6572,-3.09456 4.501174,-8.43971 1.406613,-12.09691 z"
           data-paper-data="{&quot;glyphName&quot;:&quot;R&quot;,&quot;glyphIndex&quot;:2,&quot;word&quot;:1}"
           id="path6"
           style="fill:#077688;fill-rule:nonzero;stroke-width:2.70617056;fill-opacity:1"
           inkscape:connector-curvature="0" />
        <path
           d="m 140.99884,243.67167 c 28.69496,0 51.76347,-23.34981 51.76347,-52.04477 0,-28.69496 -23.06851,-52.04478 -51.76347,-52.04478 -28.41362,0 -51.763465,23.34982 -51.763465,52.04478 0,28.69496 23.349815,52.04477 51.763465,52.04477 z m 0,-87.21019 c 19.12998,0 34.88408,15.75411 34.88408,35.16539 0,19.41131 -15.7541,35.16539 -34.88408,35.16539 -19.12997,0 -34.60274,-15.75411 -34.60274,-35.16539 0,-19.41131 15.47277,-35.16539 34.60274,-35.16539 z"
           data-paper-data="{&quot;glyphName&quot;:&quot;O&quot;,&quot;glyphIndex&quot;:3,&quot;word&quot;:1}"
           id="path8"
           style="fill:#077688;fill-rule:nonzero;stroke-width:2.70617056;fill-opacity:1"
           inkscape:connector-curvature="0" />
        <path
           d="m 255.49735,243.39034 c 0.28134,0 0.28134,0 0.28134,0 13.78483,0 27.00701,-5.62645 36.85333,-15.47277 3.37587,-3.09456 3.37587,-8.72102 0,-11.81558 -3.37586,-3.37586 -8.72101,-3.37586 -12.0969,0 -13.78483,13.50352 -36.00937,13.78483 -49.51289,0 -13.50352,-13.50352 -13.22218,-35.72803 0.28134,-49.23155 13.78482,-13.78482 36.00936,-13.78482 49.51288,-0.28133 3.37587,3.37587 8.72101,3.37587 12.09691,0 3.09456,-3.37587 3.09456,-8.72101 0,-12.09691 -20.25526,-19.97395 -53.17009,-19.97395 -73.70667,0.28134 -20.25526,20.25525 -20.25526,53.17008 0,73.42533 9.56498,9.84632 22.50584,15.19144 36.29069,15.19144 z"
           data-paper-data="{&quot;glyphName&quot;:&quot;C&quot;,&quot;glyphIndex&quot;:4,&quot;word&quot;:1}"
           id="path10"
           style="fill:#077688;fill-rule:nonzero;stroke-width:2.70617056;fill-opacity:1"
           inkscape:connector-curvature="0" />
        <path
           d="m 366.33869,199.78527 c 14.3475,-2.53192 25.6004,-14.91013 25.6004,-30.10157 0,-16.59806 -13.78482,-30.10158 -30.3829,-30.10158 h -46.41833 c -4.7825,0 -8.4397,3.6572 -8.4397,8.43971 v 87.21019 c 0,4.78251 3.6572,8.43971 8.4397,8.43971 4.78251,0 8.43971,-3.6572 8.43971,-8.43971 v -78.77048 h 37.97862 c 7.3144,0 13.22218,5.90778 13.22218,13.22218 0,7.3144 -5.90778,13.50352 -13.22218,13.50352 h -12.37822 c 0,0 0,0 -0.28133,0 -0.28134,0 -0.56264,0 -0.84398,0 -0.28133,0 -0.56264,0 -0.84397,0.28134 -0.28133,0 -0.56264,0 -0.56264,0 -0.28133,0.28133 -0.56264,0.28133 -0.84397,0.56264 -0.28134,0 -0.56264,0 -0.84398,0.28133 -0.28133,0 -0.56264,0.28134 -0.56264,0.56264 -0.28133,0 -0.28133,0 -0.28133,0 -0.28133,0 -0.28133,0.28133 -0.56264,0.28133 0,0.28134 -0.28133,0.56264 -0.56264,0.84398 -0.28133,0 -0.28133,0.28133 -0.56264,0.56264 0,0.28133 -0.28133,0.28133 -0.28133,0.56264 -0.28134,0.28133 -0.28134,0.56264 -0.56264,0.84397 0,0.28134 -0.28134,0.28134 -0.28134,0.56264 0,0.28134 -0.28133,0.56264 -0.28133,0.84398 0,0.28133 0,0.56263 0,0.84397 -0.28133,0.28133 -0.28133,0.56264 -0.28133,0.84397 0,0.28134 0,0.28134 0,0.56264 v 0.28134 c 0,0.28133 0,0.56264 0.28133,0.84397 0,0.28133 0,0.56264 0,0.84397 0,0.28134 0.28133,0.56264 0.28133,0.84398 0,0.28133 0,0.56264 0.28134,0.84397 0,0 0.28133,0.28133 0.28133,0.56264 0.28133,0.28133 0.28133,0.56264 0.56264,0.84397 0,0 0,0 0,0.28134 l 34.32142,43.32376 c 1.68794,2.25058 4.21984,3.37586 6.75176,3.37586 1.68794,0 3.6572,-0.56264 5.06381,-1.68794 3.6572,-3.09456 4.50117,-8.43971 1.40661,-12.09691 z"
           data-paper-data="{&quot;glyphName&quot;:&quot;R&quot;,&quot;glyphIndex&quot;:5,&quot;word&quot;:1}"
           id="path12"
           style="fill:#077688;fill-rule:nonzero;stroke-width:2.70617056;fill-opacity:1"
           inkscape:connector-curvature="0" />
        <path
           d="m 445.67182,243.67167 c 23.63114,0 42.76112,-19.12997 42.76112,-42.47979 V 148.0218 c 0,-4.7825 -3.93854,-8.4397 -8.43971,-8.4397 -4.78251,0 -8.72101,3.6572 -8.72101,8.4397 v 53.17008 c 0,14.06617 -11.53424,25.60041 -25.6004,25.60041 -14.06616,0 -25.60041,-11.53424 -25.60041,-25.60041 V 148.0218 c 0,-4.7825 -3.6572,-8.4397 -8.4397,-8.4397 -4.78251,0 -8.43971,3.6572 -8.43971,8.4397 v 53.17008 c 0,23.34982 19.12997,42.47979 42.47979,42.47979 z"
           data-paper-data="{&quot;glyphName&quot;:&quot;U&quot;,&quot;glyphIndex&quot;:6,&quot;word&quot;:1}"
           id="path14"
           style="fill:#077688;fill-rule:nonzero;stroke-width:2.70617056;fill-opacity:1"
           inkscape:connector-curvature="0" />
        <path
           d="m 576.76841,243.67167 c 4.50117,0 8.4397,-3.6572 8.4397,-8.4397 0,-4.78251 -3.93853,-8.43971 -8.4397,-8.43971 h -50.9195 l 57.38992,-73.42534 c 1.96926,-2.53192 2.53192,-6.18912 1.12528,-9.00234 -1.40661,-3.09456 -4.50117,-4.78251 -7.59573,-4.78251 h -68.36152 c -4.78251,0 -8.43971,3.6572 -8.43971,8.43971 0,4.7825 3.6572,8.4397 8.43971,8.4397 h 50.63816 l -57.38992,73.42534 c -1.96926,2.53192 -2.25059,6.18912 -0.84398,9.00235 1.40662,3.09456 4.21984,4.7825 7.59574,4.7825 z"
           data-paper-data="{&quot;glyphName&quot;:&quot;Z&quot;,&quot;glyphIndex&quot;:7,&quot;word&quot;:1}"
           id="path16"
           style="fill:#077688;fill-rule:nonzero;stroke-width:2.70617056;fill-opacity:1"
           inkscape:connector-curvature="0" />
        <path
           d="m 691.54825,243.67167 c 1.40662,0 2.53192,-0.28133 3.6572,-0.84397 4.21984,-1.96925 5.90779,-7.3144 3.93854,-11.53424 L 655.82022,144.3646 c -1.40661,-3.09456 -4.21984,-4.7825 -7.59573,-4.7825 v 0 c -3.09456,0 -6.18912,1.68794 -7.59573,4.7825 L 597.305,231.29346 c -1.96926,4.21984 -0.28134,9.56499 3.93853,11.53424 4.21984,1.96925 9.28365,0.28133 11.53424,-3.93853 l 35.44672,-71.73742 35.72803,71.73742 c 1.40661,3.09456 4.50117,4.7825 7.59573,4.7825 z"
           data-paper-data="{&quot;glyphName&quot;:&quot;A&quot;,&quot;glyphIndex&quot;:8,&quot;word&quot;:1}"
           id="path18"
           style="fill:#077688;fill-rule:nonzero;stroke-width:2.70617056;fill-opacity:1"
           inkscape:connector-curvature="0" />
        <path
           d="m 788.0421,243.67167 c 0.84397,0 1.68794,0 2.53192,-0.56264 3.6572,-1.12528 5.90778,-4.21984 5.90778,-7.87704 V 148.0218 c 0,-4.7825 -3.93853,-8.4397 -8.4397,-8.4397 -4.78251,0 -8.72102,3.6572 -8.72102,8.4397 v 62.45374 l -52.88875,-67.79888 c -2.25058,-2.81323 -6.18912,-3.93854 -9.56498,-2.81323 -3.37587,1.40661 -5.62646,4.50117 -5.62646,8.15837 v 87.21019 c 0,4.78251 3.6572,8.43971 8.43971,8.43971 4.78251,0 8.43971,-3.6572 8.43971,-8.43971 v -62.45373 l 53.17008,67.79888 c 1.68795,1.96925 3.93853,3.09456 6.75176,3.09456 z"
           data-paper-data="{&quot;glyphName&quot;:&quot;N&quot;,&quot;glyphIndex&quot;:9,&quot;word&quot;:1}"
           id="path20"
           style="fill:#077688;fill-rule:nonzero;stroke-width:2.70617056;fill-opacity:1"
           inkscape:connector-curvature="0" />
        <path
           d="m 859.49818,243.67167 c 28.69496,0 51.76347,-23.0685 51.76347,-51.76347 v -0.56264 c 0,-28.69496 -23.06851,-51.76346 -51.76347,-51.76346 h -43.32376 c -4.50118,0 -8.43971,3.6572 -8.43971,8.4397 0,4.78251 3.93853,8.43971 8.43971,8.43971 h 43.32376 c 19.12997,0 34.88408,15.75411 34.88408,34.88408 v 0.56264 c 0,19.12998 -15.75411,34.88408 -34.88408,34.88408 h -43.32376 c -4.50118,0 -8.43971,3.6572 -8.43971,8.43971 0,4.78251 3.93853,8.43971 8.43971,8.43971 z"
           data-paper-data="{&quot;glyphName&quot;:&quot;D&quot;,&quot;glyphIndex&quot;:10,&quot;lastGlyphOfWord&quot;:true,&quot;word&quot;:1}"
           id="path22"
           style="fill:#077688;fill-rule:nonzero;stroke-width:2.70617056;fill-opacity:1"
           inkscape:connector-curvature="0" />
        <path
           d="m -292.93181,162.75044 c 3.18964,0.57095 6.44149,-1.18947 7.62731,-4.32788 l 5.27397,1.99101 c -1.88852,4.99947 -6.65743,8.08481 -11.70997,8.08481 -0.83081,0 -1.6671,-0.0934 -2.50157,-0.26535 l -2.71384,9.36579 -11.9863,7.78468 -5.83759,7.29791 -12.00094,-4.86588 v -13.45942 l -10.58088,5.99681 10.90479,12.3285 2.06969,10.0923 -16.56854,16.56854 -9.32919,-4.39559 -2.62051,3.57211 -9.17912,-2.56195 6.0572,-10.07947 12.28641,3.47512 3.96921,-8.73628 -17.76536,-8.82778 -28.21447,15.99028 -6.16333,14.23533 -14.54277,9.13887 -3.62883,9.79766 -0.35684,8.85156 h 3.91064 l 1.79337,10.50219 h -14.32684 l -5.05254,-24.9736 4.84759,-14.91974 -5.77538,-17.93004 -2.01297,2.18497 c -2.46131,2.66993 -5.82663,4.02411 -9.19925,4.02411 -3.03044,0 -6.07001,-1.0925 -8.46909,-3.30492 l 3.82098,-4.14487 c 1.34868,1.24256 3.1146,1.89402 4.93359,1.81167 1.8318,-0.075 3.52635,-0.85825 4.76889,-2.20695 l 4.42669,-4.80365 8.85706,-14.55009 57.0859,-56.4326 49.94717,15.56754 9.12605,11.24516 3.4989,1.32124 c 1.71468,0.64781 3.57942,0.58925 5.25202,-0.1647 1.67258,-0.75578 2.94991,-2.11545 3.59771,-3.83196 l 5.27397,1.99284 c -1.18033,3.12376 -3.50806,5.60153 -6.55129,6.97584 -1.61768,0.73017 -3.33604,1.10164 -5.05986,1.11262 z m -117.53168,142.39653 c -6.21757,-5.32958 -11.46407,-10.54221 -15.73954,-15.63787 -7.83805,-9.34179 -14.54211,-20.29018 -20.11218,-32.84523 -5.57386,-12.56371 -9.05106,-24.57029 -10.43164,-36.01974 -0.40652,-3.37169 -0.61997,-23.27089 -0.64035,-59.69763 -0.0205,-36.51188 0.18804,-55.53006 0.62524,-57.05453 0.81043,-2.82584 2.63378,-4.976534 5.47005,-6.452039 2.10453,-1.094883 13.1675,-2.800923 33.18887,-5.118106 10.98449,-1.271308 19.71407,-2.07265 26.18876,-2.404011 6.46797,-0.331049 16.54924,-0.492835 30.24386,-0.485359 14.18417,0.0071 24.89885,0.227635 32.14404,0.659681 7.24836,0.432202 17.23363,1.446866 29.95579,3.044007 12.74864,1.600409 20.53973,2.753749 23.37324,3.46002 3.16425,0.78865 5.49455,2.293335 6.99093,4.514087 l 1.27431,1.89036 c 0.0877,0.13005 0.1545,0.27014 0.20033,0.42017 0.0458,0.15003 0.0688,0.30349 0.0688,0.46036 v 58.32487 c 0,38.97772 -0.21158,59.63126 -0.63478,61.96056 -2.58181,14.2225 -7.11461,27.6326 -13.59839,40.2303 -6.48772,12.60442 -14.60874,23.7733 -24.36305,33.50668 -13.51007,13.48122 -29.24099,23.82429 -47.19279,31.02919 -3.73126,1.49716 -6.59758,2.28506 -8.59893,2.3637 -2.04127,0.0799 -4.65154,-0.50756 -7.8308,-1.76211 -7.77626,-3.06941 -15.3919,-6.8471 -22.84691,-11.33309 -5.60461,-3.37248 -11.51622,-7.72391 -17.73487,-13.05427 z m 55.83736,20.86138 c 17.55467,-7.04566 32.93511,-17.15757 46.14134,-30.33572 9.52078,-9.50064 17.44976,-20.40676 23.78694,-32.7184 6.34035,-12.31834 10.77357,-25.43525 13.29967,-39.35073 0.3892,-2.14322 0.58381,-22.60905 0.58381,-61.39751 v -57.84353 l -1.00523,-1.49124 c -0.59981,-0.89029 -1.15577,-1.51348 -1.66786,-1.86962 -0.72113,-0.50139 -1.87847,-0.95067 -3.47205,-1.347856 -2.7118,-0.67587 -10.3796,-1.806228 -23.0034,-3.391031 -12.65421,-1.58857 -22.57111,-2.59691 -29.75072,-3.025033 -7.18355,-0.428336 -17.8364,-0.646335 -31.95854,-0.654038 -13.64048,-0.0071 -23.66762,0.152974 -30.08145,0.481208 -6.40711,0.327922 -15.06948,1.123664 -25.98706,2.38724 -19.6368,2.272654 -30.33577,3.867109 -32.09693,4.78335 -2.0353,1.05884 -3.33374,2.56724 -3.89531,4.52522 -0.35562,1.24001 -0.5233,19.96805 -0.50308,56.18409 0.0203,36.30107 0.22616,56.07523 0.61765,59.32245 1.34292,11.13689 4.73744,22.84316 10.18359,35.11884 5.4499,12.28397 11.9985,22.98323 19.64578,32.09783 4.16422,4.96329 9.28963,10.05343 15.37626,15.27039 6.08469,5.21619 11.85425,9.46525 17.3087,12.74726 7.30527,4.39587 14.76503,8.09632 22.37927,11.10133 2.76793,1.09255 4.95145,1.6074 6.55056,1.54458 1.63823,-0.064 4.15425,-0.77704 7.54807,-2.13907 z"
           data-paper-data="{&quot;isPathIcon&quot;:true}"
           id="path26"
           style="fill:#077688;fill-opacity:1;fill-rule:evenodd;stroke-width:1.42129743"
           inkscape:connector-curvature="0" />
        <path
           transform="translate(0,1.9915254)"
           inkscape:connector-curvature="0"
           id="path3742"
           d="m -420.73107,245.25299 c -1.81314,-9.216 -1.82448,-13.7084 -0.0482,-19.0906 1.79472,-5.43804 1.76,-9.04904 -0.15271,-15.88056 -2.86651,-10.23816 -4.50674,-11.83693 -7.92203,-7.72177 -2.7885,3.35994 -11.0666,3.98357 -12.92672,0.97384 -0.69807,-1.12951 0.97509,-1.99153 3.86552,-1.99153 5.61463,0 11.27101,-4.77223 15.80779,-13.33688 1.62644,-3.07043 16.23713,-18.77115 32.4682,-34.89048 l 29.51104,-29.30788 22.90254,7.15401 c 17.65081,5.51354 24.52015,8.69485 29.95685,13.87355 6.93273,6.60374 14.39979,8.68283 16.86407,4.69554 0.688,-1.11321 2.12869,-1.48152 3.20153,-0.81847 2.51031,1.55146 -1.70628,6.82553 -5.45698,6.82553 -1.50889,0 -2.74344,0.92431 -2.74344,2.05403 0,3.36008 5.79414,4.558 9.03536,1.86803 1.65553,-1.37397 3.65912,-1.84905 4.45244,-1.05574 1.86878,1.86878 -5.26801,7.09131 -9.69056,7.09131 -1.9957,0 -4.27056,2.47549 -5.49034,5.97457 -1.14551,3.28602 -2.99437,5.97458 -4.10858,5.97458 -1.1142,0 -4.96961,2.57402 -8.56758,5.72004 -5.14365,4.49755 -7.49942,5.36253 -11.02269,4.04723 -3.48544,-1.30119 -4.48093,-3.23561 -4.48093,-8.70733 0,-8.01356 -1.58257,-8.62933 -8.24335,-3.20745 l -4.70156,3.82707 5.33465,5.63268 c 9.02483,9.529 8.98186,14.43839 -0.20491,23.40902 -7.10299,6.93589 -8.53597,7.56618 -12.79254,5.62676 -3.50264,-1.59591 -5.39562,-1.58198 -7.02935,0.0517 -3.08887,3.08887 -6.75018,-0.83352 -5.01029,-5.36758 1.05089,-2.73857 2.75655,-3.22386 7.92382,-2.25448 5.28172,0.99086 7.00003,0.45918 8.68376,-2.68689 1.1545,-2.1572 2.09909,-4.41098 2.09909,-5.00839 0,-1.44059 -15.15648,-9.13327 -17.9948,-9.13327 -1.2217,0 -8.22297,3.50518 -15.55837,7.78928 -9.58165,5.59598 -14.28907,9.78562 -16.71798,14.87908 -1.85949,3.89939 -6.50092,9.13203 -10.31429,11.62809 -3.81337,2.49606 -7.87302,6.59688 -9.02144,9.11294 -2.65236,5.81101 -2.71454,16.33637 -0.0965,16.33637 1.09534,0 1.99153,1.79238 1.99153,3.98305 0,3.05781 -1.32768,3.98305 -5.71547,3.98305 -5.40211,0 -5.84547,-0.66077 -8.08657,-12.05209 z"
           style="fill:#077688;fill-opacity:1;stroke-width:1.99152541" />
        <path
           transform="translate(0,1.9915254)"
           inkscape:connector-curvature="0"
           id="path3744"
           d="m -420.73107,245.25299 c -1.81314,-9.216 -1.82448,-13.7084 -0.0482,-19.0906 1.79472,-5.43804 1.76,-9.04904 -0.15271,-15.88056 -2.86651,-10.23816 -4.50674,-11.83693 -7.92203,-7.72177 -2.7885,3.35994 -11.0666,3.98357 -12.92672,0.97384 -0.69807,-1.12951 0.97509,-1.99153 3.86552,-1.99153 5.61463,0 11.27101,-4.77223 15.80779,-13.33688 1.62644,-3.07043 16.23713,-18.77115 32.4682,-34.89048 l 29.51104,-29.30788 22.90254,7.15401 c 17.65081,5.51354 24.52015,8.69485 29.95685,13.87355 6.93273,6.60374 14.39979,8.68283 16.86407,4.69554 0.688,-1.11321 2.12869,-1.48152 3.20153,-0.81847 2.51031,1.55146 -1.70628,6.82553 -5.45698,6.82553 -1.50889,0 -2.74344,0.92431 -2.74344,2.05403 0,3.36008 5.79414,4.558 9.03536,1.86803 1.65553,-1.37397 3.65912,-1.84905 4.45244,-1.05574 1.86878,1.86878 -5.26801,7.09131 -9.69056,7.09131 -1.9957,0 -4.27056,2.47549 -5.49034,5.97457 -1.14551,3.28602 -2.99437,5.97458 -4.10858,5.97458 -1.1142,0 -4.96961,2.57402 -8.56758,5.72004 -5.14365,4.49755 -7.49942,5.36253 -11.02269,4.04723 -3.48544,-1.30119 -4.48093,-3.23561 -4.48093,-8.70733 0,-8.01356 -1.58257,-8.62933 -8.24335,-3.20745 l -4.70156,3.82707 5.33465,5.63268 c 9.02483,9.529 8.98186,14.43839 -0.20491,23.40902 -7.10299,6.93589 -8.53597,7.56618 -12.79254,5.62676 -3.50264,-1.59591 -5.39562,-1.58198 -7.02935,0.0517 -3.08887,3.08887 -6.75018,-0.83352 -5.01029,-5.36758 1.05089,-2.73857 2.75655,-3.22386 7.92382,-2.25448 5.28172,0.99086 7.00003,0.45918 8.68376,-2.68689 1.1545,-2.1572 2.09909,-4.41098 2.09909,-5.00839 0,-1.44059 -15.15648,-9.13327 -17.9948,-9.13327 -1.2217,0 -8.22297,3.50518 -15.55837,7.78928 -9.58165,5.59598 -14.28907,9.78562 -16.71798,14.87908 -1.85949,3.89939 -6.50092,9.13203 -10.31429,11.62809 -3.81337,2.49606 -7.87302,6.59688 -9.02144,9.11294 -2.65236,5.81101 -2.71454,16.33637 -0.0965,16.33637 1.09534,0 1.99153,1.79238 1.99153,3.98305 0,3.05781 -1.32768,3.98305 -5.71547,3.98305 -5.40211,0 -5.84547,-0.66077 -8.08657,-12.05209 z"
           style="fill:#077688;fill-opacity:1;stroke-width:1.99152541" />
        <path
           transform="translate(0,1.9915254)"
           inkscape:connector-curvature="0"
           id="path3746"
           d="m 10.136597,194.57203 c -0.0018,-21.90678 0.289206,-31.14036 0.646594,-20.51907 0.357388,10.62129 0.358829,28.54502 0.0032,39.83051 -0.355632,11.28549 -0.64804,2.59534 -0.649801,-19.31144 z"
           style="fill:#077688;fill-opacity:1;stroke-width:1.99152541" />
        <path
           transform="translate(0,1.9915254)"
           inkscape:connector-curvature="0"
           id="path3748"
           d="m 10.136597,194.57203 c -0.0018,-21.90678 0.289206,-31.14036 0.646594,-20.51907 0.357388,10.62129 0.358829,28.54502 0.0032,39.83051 -0.355632,11.28549 -0.64804,2.59534 -0.649801,-19.31144 z"
           style="fill:#077688;fill-opacity:1;stroke-width:1.99152541" />
      </g>
    </g>
  </g>
</svg>
